<svg id="图层_1" data-name="图层 1" xmlns="http://www.w3.org/2000/svg" viewBox="0 0 118.17 16.13"><defs><style>.cls-1{fill:#333;}</style></defs><title>slogan</title><path class="cls-1" d="M3.18,8.5a21.45,21.45,0,0,1-2.65,3l-.27-.24A24.09,24.09,0,0,0,4.61,1.8Q6.66,2.7,6.66,3c0,.11-.09.19-.27.23A.66.66,0,0,0,6,3.5a8.48,8.48,0,0,0-.54,1.15,16.38,16.38,0,0,1-1.05,2,2.72,2.72,0,0,1,.53.25q.27.16.27.29c0,.09-.16.19-.49.31v9.3a.34.34,0,0,1-.08.24,2.21,2.21,0,0,1-.64.27,3,3,0,0,1-.78.19c-.06,0-.08-.06-.08-.19l.05-1.6q0-.75,0-1.41ZM9.54,9.91H6.34a1.73,1.73,0,0,0-.71.12l-.31-.71a3.69,3.69,0,0,0,.85.08H9.54V5.13q-2.45.37-4.15.48l0-.37Q7.87,4.67,9.6,4.12a29.47,29.47,0,0,0,3.84-1.57q.54.51,1,1a7.91,7.91,0,0,1,.53.62.39.39,0,0,1,.08.19c0,.09,0,.14-.13.14a1.57,1.57,0,0,1-.32,0,2.37,2.37,0,0,0-.48,0,6.2,6.2,0,0,0-1,.12l-2,.36V9.4h2.47l.71-1q.17-.24.27-.24t1.07.74q.85.74.85.91t-.34.1h-5v5.66H13l.77-1.16a.39.39,0,0,1,.33-.22q.2,0,1.05.81t.86.94c0,.09-.11.14-.32.14H6.58a1.73,1.73,0,0,0-.71.12l-.31-.71a3.71,3.71,0,0,0,.85.08H9.54Z" transform="translate(-0.25 -1.46)"/><path class="cls-1" d="M19.86,8.7a20.67,20.67,0,0,1-2.38,2.81l-.31-.26a21.29,21.29,0,0,0,2.47-4.39,32.38,32.38,0,0,0,1.62-5.4A12.7,12.7,0,0,1,22.56,2q.76.35.77.49c0,.1-.07.17-.22.21a.64.64,0,0,0-.36.28,6.57,6.57,0,0,0-.43,1,24.25,24.25,0,0,1-1.44,3.11,2,2,0,0,1,.46.14c.17.07.25.15.25.22s-.14.17-.41.3v8.65a.35.35,0,0,1,0,.2,1.6,1.6,0,0,1-.32.24,3.09,3.09,0,0,1-.58.29,1.6,1.6,0,0,1-.37.11q-.08,0-.08-.19l.05-1.58q0-.75,0-1.39Zm7.92-2.16,2-.8L30.11,5q.08-.2.22-.2A2.49,2.49,0,0,1,31,5a5,5,0,0,1,.77.42c.15.11.22.21.22.31s-.2.43-.61.68q-.08,1.68-.19,3.26a15.32,15.32,0,0,1-.2,2,1.56,1.56,0,0,1-.38.71,2.83,2.83,0,0,1-.85.57,2.68,2.68,0,0,1-.7.27c-.08,0-.14-.07-.16-.2a1.42,1.42,0,0,0-1.12-1.26v.37q0,.7,0,1l0,.54a.34.34,0,0,1-.18.26,2.89,2.89,0,0,1-.55.28,1.7,1.7,0,0,1-.6.15c-.08,0-.12-.08-.12-.24V7.85l-1.67.66v5.64a2.42,2.42,0,0,0,.09.78.7.7,0,0,0,.42.39,5,5,0,0,0,1.33.2q1,.06,1.91.06A13.53,13.53,0,0,0,30,15.51a4.8,4.8,0,0,0,.82-.14.61.61,0,0,0,.29-.25,2.22,2.22,0,0,0,.24-.61q.11-.42.26-1.28l.29-1.82.41.05q-.09,1.1-.08,1.84a4.13,4.13,0,0,0,.14,1.2,1.53,1.53,0,0,0,.59.79c.11.08.17.16.17.24a1.59,1.59,0,0,1-.35.57,1.68,1.68,0,0,1-.83.6,7.22,7.22,0,0,1-1.66.2q-1.17.05-2,.05a15,15,0,0,1-3.3-.26,1.91,1.91,0,0,1-1.38-.9,6,6,0,0,1-.31-2.3V9.07l-.49.2a2.55,2.55,0,0,0-.75.46L21.44,9l.71-.25,1.16-.46V5.93q0-1.16-.05-1.9a9.37,9.37,0,0,1,1.52.48q.45.21.45.31t-.51.39V7.75l1.67-.66V3q0-.56-.05-1.24a8.11,8.11,0,0,1,1.23.27q.62.19.75.25c.08,0,.13.08.13.13s-.22.29-.66.56Zm0,4.78q.73.07,1.11.07a.94.94,0,0,0,.54-.12.75.75,0,0,0,.23-.48q.07-.36.15-1.46t.12-2.92l-2.16.88Z" transform="translate(-0.25 -1.46)"/><path class="cls-1" d="M39.8,12.29H37.43v1a.56.56,0,0,1,0,.19.89.89,0,0,1-.31.24,2.32,2.32,0,0,1-.67.26,3.35,3.35,0,0,1-.47.09c-.05,0-.07-.05-.06-.15a16.72,16.72,0,0,0,.08-1.7V4.38q0-.71-.05-1.45a13.79,13.79,0,0,1,2.07,1h1.7l.48-.65c.07-.1.14-.15.2-.15a2.91,2.91,0,0,1,.88.51q.72.51.72.7t-.68.41V11l0,1.53v.2a4.48,4.48,0,0,1-1,.56,2.43,2.43,0,0,1-.47.14c-.05,0-.08-.07-.08-.2ZM37.43,8H39.8V4.48H37.43Zm0,3.77H39.8V8.48H37.43Zm7.29-8.67h2.5l.48-.71c.1-.15.19-.22.26-.22a1.94,1.94,0,0,1,.6.34l.78.54q.31.22.31.39t-.83.51V14.62a4.49,4.49,0,0,1-.16,1.47,1.88,1.88,0,0,1-.91.8,3.15,3.15,0,0,1-.94.4c-.1,0-.18-.12-.22-.37a1.59,1.59,0,0,0-.23-.61,1.7,1.7,0,0,0-.6-.48,12.05,12.05,0,0,0-1.37-.59l.05-.27a15.69,15.69,0,0,0,2,.29,1.43,1.43,0,0,0,.64-.1q.19-.1.19-.56V11H44a5.89,5.89,0,0,1-1.44,3.83,13.14,13.14,0,0,1-4,2.42L38.37,17a17.91,17.91,0,0,0,2.1-1.62,7.08,7.08,0,0,0,1.25-1.48,5.6,5.6,0,0,0,.67-1.63,16.48,16.48,0,0,0,.31-2.69q.1-1.81.1-3.69t-.08-3.68A11.35,11.35,0,0,1,44.73,3.07Zm2.6,4.25H44.25Q44.2,8.75,44,10.5h3.3Zm-3-.53h3V3.57h-3q0,.54,0,1.28T44.29,6.8Z" transform="translate(-0.25 -1.46)"/><path class="cls-1" d="M56.56,10.49a7.83,7.83,0,0,1-1.25,4,10.57,10.57,0,0,1-3.51,2.84l-.25-.26a11.73,11.73,0,0,0,2.33-2.57,7.46,7.46,0,0,0,1-2.76,27.3,27.3,0,0,0,.25-4.23q0-2.69-.08-5.47A15.42,15.42,0,0,1,56.93,3H62l.39-.73a.25.25,0,0,1,.21-.15,4.56,4.56,0,0,1,1,.53q.88.53.88.69t-.7.52v11a3.29,3.29,0,0,1-.17,1.27,2.22,2.22,0,0,1-1,.78,3.74,3.74,0,0,1-1.06.42.26.26,0,0,1-.26-.24,1.87,1.87,0,0,0-.54-1,7,7,0,0,0-1.67-.89l.05-.39a14.56,14.56,0,0,0,2.27.42,1.49,1.49,0,0,0,.59-.08c.1-.05.14-.17.14-.35V10.49Zm5.58-3.26H56.71q0,1.5-.1,2.7h5.52Zm-5.41-.56h5.41V3.52H56.73Q56.75,5.27,56.73,6.66Z" transform="translate(-0.25 -1.46)"/><path class="cls-1" d="M75.26,4.11H69.85a1.73,1.73,0,0,0-.71.12l-.31-.7a3.71,3.71,0,0,0,.85.08H81l.88-1.31a.32.32,0,0,1,.24-.15,3.59,3.59,0,0,1,1.14.76q.93.77.93,1t-.34.21H76.81V7.48a16.06,16.06,0,0,1,3.88,1.27A2.09,2.09,0,0,1,82,10.57a1.71,1.71,0,0,1-.21.88q-.21.36-.43.37a.52.52,0,0,1-.37-.14,4.44,4.44,0,0,1-.43-.5,10.63,10.63,0,0,0-1.79-2,12.64,12.64,0,0,0-2-1.31v6.36q0,1.19,0,1.56l0,.7a.21.21,0,0,1,0,.14,1.76,1.76,0,0,1-.34.21,3.94,3.94,0,0,1-.63.27,1.76,1.76,0,0,1-.49.11c-.11,0-.16,0-.16-.12s0-.35,0-.81,0-1,0-1.74Z" transform="translate(-0.25 -1.46)"/><path class="cls-1" d="M89.27,6.86h1.8q0-1.73,0-3H86.73a1.74,1.74,0,0,0-.71.12l-.31-.73a3.69,3.69,0,0,0,.85.08H98.33l.73-1A.43.43,0,0,1,99.41,2a3.26,3.26,0,0,1,1.06.74q.87.74.87.89t-.34.15H95.61v3h2.23l.46-.7A.34.34,0,0,1,98.57,6a3.26,3.26,0,0,1,.92.5q.76.5.76.66t-.65.42v7.29q0,.75,0,1l0,.54a.31.31,0,0,1-.17.26,4.31,4.31,0,0,1-.72.31,2.87,2.87,0,0,1-.71.2c-.07,0-.1-.07-.1-.22V15.23H89v1.11a.41.41,0,0,1-.17.35,3,3,0,0,1-.68.32,2.6,2.6,0,0,1-.68.19c-.07,0-.1-.07-.08-.22q.07-.77.07-1.63v-8q0-.71-.05-1.44A10.48,10.48,0,0,1,89.27,6.86ZM89,14.72h8.92V12.41q-1.43.08-2.16.09a3.17,3.17,0,0,1-1.08-.14.66.66,0,0,1-.43-.44,4.48,4.48,0,0,1-.08-1.05V7.37H92.57a11.45,11.45,0,0,1-.63,3.89,6,6,0,0,1-2.69,2.5l-.17-.22a9.24,9.24,0,0,0,1.36-1.76,4.89,4.89,0,0,0,.47-1.61,26.72,26.72,0,0,0,.16-2.81H89Zm3.57-7.85h1.6v-3H92.62Q92.62,5.16,92.58,6.86Zm5.35,4.22V7.37H95.61v3.16a.59.59,0,0,0,.16.48,1.2,1.2,0,0,0,.67.13Q97,11.15,97.94,11.08Z" transform="translate(-0.25 -1.46)"/><path class="cls-1" d="M106.57,5.78h.51l.58-.82c.09-.12.16-.19.22-.19s.53.31,1.19.94h3v-2q0-1.46,0-1.94a13.65,13.65,0,0,1,1.47.35q.5.16.5.3t-.66.56V5.71h2.52l.65-.9c.08-.11.15-.17.2-.17s.4.22.89.67.74.73.74.86-.16.12-.49.12h-3.76a5,5,0,0,0,1.64,1.62,9.35,9.35,0,0,0,2.68,1l0,.29a2.58,2.58,0,0,0-.89.14,1,1,0,0,0-.57.6c0,.11-.11.17-.2.17a4.07,4.07,0,0,1-1.5-1,5.36,5.36,0,0,1-1.69-2.82h-.19v.94l0,2.06c0,.2-.16.35-.48.45a2.8,2.8,0,0,1-.78.14c-.06,0-.08-.07-.08-.2l0-1.05q0-.46,0-1.19V7.14a14,14,0,0,1-3.64,3.5l-.2-.25a16.47,16.47,0,0,0,2.92-4.1h-1.84l-.22,0h-2.48v1A7,7,0,0,1,108.2,8a.91.91,0,0,1,.42.75,1.35,1.35,0,0,1-.26.81q-.26.37-.49.37c-.15,0-.27-.12-.37-.36a3.86,3.86,0,0,0-.92-1.6v8.65a.31.31,0,0,1-.14.25,3,3,0,0,1-.59.26,2.21,2.21,0,0,1-.59.16q-.1,0-.1-.17l0-.7q0-.71,0-1.58V9.74a12.77,12.77,0,0,1-2.57,3.59l-.25-.17A17.69,17.69,0,0,0,104,10.08a32.14,32.14,0,0,0,1.08-3.77H103.6a2.63,2.63,0,0,0-.73.08l-.29-.7a3.69,3.69,0,0,0,.85.08h1.77V3.72q0-1.12-.05-1.94a10.28,10.28,0,0,1,1.3.31,4,4,0,0,1,.61.24c.08.05.13.1.13.16s-.2.27-.61.51Zm3.88,6.09H108a1,1,0,0,0-.49.1l-.2-.71a1.7,1.7,0,0,0,.58.09h2.89a13.41,13.41,0,0,0,.82-1.6q1.84.73,1.84.92c0,.06-.09.12-.28.18a1.63,1.63,0,0,0-.4.18,1.43,1.43,0,0,0-.29.32H116l.53-.8q.14-.2.25-.2a3.51,3.51,0,0,1,.88.62q.76.62.76.77c0,.1-.11.14-.32.14h-2.46a11.37,11.37,0,0,1-1.51,2.69,15.82,15.82,0,0,1,2.08.71,3.46,3.46,0,0,1,1.1.65,1,1,0,0,1,.25.71,1.35,1.35,0,0,1-.17.71.48.48,0,0,1-.39.28,1.09,1.09,0,0,1-.59-.31,12.75,12.75,0,0,0-3.18-2,13.19,13.19,0,0,1-6.12,1.94l-.05-.37a13.9,13.9,0,0,0,5-2,31.58,31.58,0,0,0-3.11-.66A20.78,20.78,0,0,0,110.45,11.86Zm-1.51-9.28a12.81,12.81,0,0,1,1.82,1,.94.94,0,0,1,.44.7,1.26,1.26,0,0,1-.31.75q-.31.4-.57.4T109.91,5a5.26,5.26,0,0,0-.49-1.2,7.1,7.1,0,0,0-.7-.94ZM114,11.86h-1.94q-.66,1-1.43,2,1,.14,2.09.34A5.29,5.29,0,0,0,114,11.86Zm1.19-9.38q1.6.73,1.6,1t-.25.17a2.28,2.28,0,0,0-.74.39q-.48.34-1.84,1.44l-.25-.19A21.66,21.66,0,0,0,115.21,2.48Z" transform="translate(-0.25 -1.46)"/></svg>